<svg width="28" height="30" viewBox="0 0 28 30" fill="none" xmlns="http://www.w3.org/2000/svg">
<path d="M8 9C7.60217 9 7.22064 9.15804 6.93934 9.43934C6.65803 9.72064 6.5 10.1022 6.5 10.5C6.5 10.8978 6.65803 11.2794 6.93934 11.5607C7.22064 11.842 7.60217 12 8 12H9.5C9.89782 12 10.2794 11.842 10.5607 11.5607C10.842 11.2794 11 10.8978 11 10.5C11 10.1022 10.842 9.72064 10.5607 9.43934C10.2794 9.15804 9.89782 9 9.5 9H8ZM15.5 27H5C4.60217 27 4.22064 26.842 3.93934 26.5607C3.65804 26.2794 3.5 25.8978 3.5 25.5V4.5C3.5 4.10217 3.65804 3.72064 3.93934 3.43934C4.22064 3.15804 4.60217 3 5 3H12.5V7.5C12.5 8.69347 12.9741 9.83807 13.818 10.682C14.6619 11.5259 15.8065 12 17 12H21.5V15C21.5 15.3978 21.658 15.7794 21.9393 16.0607C22.2206 16.342 22.6022 16.5 23 16.5C23.3978 16.5 23.7794 16.342 24.0607 16.0607C24.342 15.7794 24.5 15.3978 24.5 15V10.5C24.5 10.5 24.5 10.5 24.5 10.41C24.4844 10.2722 24.4542 10.1364 24.41 10.005V9.87C24.3379 9.71577 24.2417 9.574 24.125 9.45L15.125 0.45C15.001 0.333324 14.8592 0.237121 14.705 0.165C14.6554 0.156314 14.6046 0.156314 14.555 0.165C14.4091 0.0870046 14.2524 0.031383 14.09 0H5C3.80653 0 2.66193 0.474106 1.81802 1.31802C0.974106 2.16193 0.5 3.30653 0.5 4.5V25.5C0.5 26.6935 0.974106 27.8381 1.81802 28.682C2.66193 29.5259 3.80653 30 5 30H15.5C15.8978 30 16.2794 29.842 16.5607 29.5607C16.842 29.2794 17 28.8978 17 28.5C17 28.1022 16.842 27.7206 16.5607 27.4393C16.2794 27.158 15.8978 27 15.5 27ZM15.5 5.115L19.385 9H17C16.6022 9 16.2206 8.84196 15.9393 8.56066C15.658 8.27936 15.5 7.89782 15.5 7.5V5.115ZM17 15H8C7.60217 15 7.22064 15.158 6.93934 15.4393C6.65803 15.7206 6.5 16.1022 6.5 16.5C6.5 16.8978 6.65803 17.2794 6.93934 17.5607C7.22064 17.842 7.60217 18 8 18H17C17.3978 18 17.7794 17.842 18.0607 17.5607C18.342 17.2794 18.5 16.8978 18.5 16.5C18.5 16.1022 18.342 15.7206 18.0607 15.4393C17.7794 15.158 17.3978 15 17 15ZM27.065 24.435C26.9256 24.2944 26.7596 24.1828 26.5769 24.1067C26.3941 24.0305 26.198 23.9913 26 23.9913C25.802 23.9913 25.6059 24.0305 25.4231 24.1067C25.2403 24.1828 25.0744 24.2944 24.935 24.435L24.5 24.885V21C24.5 20.6022 24.342 20.2206 24.0607 19.9393C23.7794 19.658 23.3978 19.5 23 19.5C22.6022 19.5 22.2206 19.658 21.9393 19.9393C21.658 20.2206 21.5 20.6022 21.5 21V24.885L21.065 24.435C20.7825 24.1525 20.3994 23.9939 20 23.9939C19.6005 23.9939 19.2175 24.1525 18.935 24.435C18.6525 24.7175 18.4939 25.1005 18.4939 25.5C18.4939 25.8995 18.6525 26.2825 18.935 26.565L21.935 29.565C22.0777 29.7016 22.2459 29.8086 22.43 29.88C22.6095 29.9594 22.8037 30.0003 23 30.0003C23.1963 30.0003 23.3904 29.9594 23.57 29.88C23.7541 29.8086 23.9223 29.7016 24.065 29.565L27.065 26.565C27.2056 26.4256 27.3172 26.2597 27.3933 26.0769C27.4695 25.8941 27.5087 25.698 27.5087 25.5C27.5087 25.302 27.4695 25.1059 27.3933 24.9231C27.3172 24.7403 27.2056 24.5744 27.065 24.435ZM14 24C14.3978 24 14.7794 23.842 15.0607 23.5607C15.342 23.2794 15.5 22.8978 15.5 22.5C15.5 22.1022 15.342 21.7206 15.0607 21.4393C14.7794 21.158 14.3978 21 14 21H8C7.60217 21 7.22064 21.158 6.93934 21.4393C6.65803 21.7206 6.5 22.1022 6.5 22.5C6.5 22.8978 6.65803 23.2794 6.93934 23.5607C7.22064 23.842 7.60217 24 8 24H14Z" fill="#0559A4"/>
</svg>
