<svg width="24" height="18" viewBox="0 0 24 18" fill="none" xmlns="http://www.w3.org/2000/svg">
<path d="M21 0H3C2.20435 0 1.44129 0.316071 0.87868 0.87868C0.31607 1.44129 0 2.20435 0 3L0 15C0 15.7956 0.31607 16.5587 0.87868 17.1213C1.44129 17.6839 2.20435 18 3 18H21C21.7956 18 22.5587 17.6839 23.1213 17.1213C23.6839 16.5587 24 15.7956 24 15V3C24 2.20435 23.6839 1.44129 23.1213 0.87868C22.5587 0.316071 21.7956 0 21 0ZM2 5.822L7.933 9.6L2 14.683V5.822ZM9.651 10.759C9.666 10.746 9.672 10.727 9.687 10.713L10.926 11.502C11.2474 11.7052 11.6198 11.813 12 11.813C12.3802 11.813 12.7526 11.7052 13.074 11.502L14.314 10.713C14.328 10.727 14.334 10.746 14.35 10.759L20.464 16H3.537L9.651 10.759ZM22 14.683L16.067 9.6L22 5.822V14.683ZM3 2H21C21.2652 2 21.5196 2.10536 21.7071 2.29289C21.8946 2.48043 22 2.73478 22 3V3.451L12 9.814L2 3.451V3C2 2.73478 2.10536 2.48043 2.29289 2.29289C2.48043 2.10536 2.73478 2 3 2Z" fill="white"/>
</svg>
