<svg width="24" height="24" viewBox="0 0 24 24" fill="none" xmlns="http://www.w3.org/2000/svg">
<g clip-path="url(#clip0_1_55)">
<path d="M13.4437 1.49375C15.9159 1.49375 18.152 2.49754 19.7779 4.12199C21.4024 5.74793 22.4062 7.98407 22.4062 10.4562C22.4062 10.8685 22.7408 11.2031 23.1531 11.2031C23.5653 11.2031 23.8999 10.8685 23.8999 10.4562C23.8984 4.68887 19.2111 0.00149375 13.4437 0C13.0314 0 12.6968 0.334599 12.6968 0.746873C12.6968 1.15915 13.0314 1.49375 13.4437 1.49375Z" fill="white"/>
<path d="M13.4437 4.48129C15.0921 4.48129 16.5821 5.14974 17.6665 6.23346C18.7502 7.31792 19.4187 8.80793 19.4187 10.4563C19.4187 10.8685 19.7533 11.2031 20.1656 11.2031C20.5778 11.2031 20.9124 10.8685 20.9124 10.4563C20.9109 6.33578 17.5642 2.98904 13.4437 2.98755C13.0314 2.98755 12.6968 3.32215 12.6968 3.73442C12.6968 4.14669 13.0314 4.48129 13.4437 4.48129Z" fill="white"/>
<path d="M13.4437 7.46872C15.0891 7.47171 16.4282 8.8101 16.4312 10.4562C16.4312 10.8685 16.7658 11.2031 17.1781 11.2031C17.5903 11.2031 17.9249 10.8685 17.9249 10.4562C17.9235 7.98257 15.9166 5.97647 13.4437 5.97498C13.0314 5.97498 12.6968 6.30957 12.6968 6.72185C12.6968 7.13412 13.0314 7.46872 13.4437 7.46872Z" fill="white"/>
<path d="M19.1192 13.3309C18.6838 12.8948 18.1057 12.6737 17.5351 12.6744C16.9644 12.6737 16.3864 12.8948 15.9509 13.3309L14.8949 14.387C14.747 14.5341 14.5603 14.6051 14.3668 14.6058C14.1734 14.6051 13.9867 14.5341 13.8388 14.387L9.61373 10.162C9.4666 10.0141 9.39564 9.82735 9.3949 9.63391C9.39564 9.44047 9.4666 9.25375 9.61373 9.10587L10.6698 8.04979C11.106 7.61437 11.3271 7.03629 11.3263 6.46568C11.3271 5.89507 11.106 5.31699 10.6698 4.88156L6.44475 0.656503C6.00858 0.220329 5.43124 -0.000744987 4.85989 1.88607e-06C4.28928 -0.000744987 3.7112 0.220329 3.27577 0.656503L1.16287 2.76866C0.365209 3.55586 -0.00748079 4.55817 -1.20628e-05 5.55599C0.023141 7.57702 1.28685 9.5779 2.80151 11.4854C4.32737 13.3847 6.16766 15.166 7.50083 16.4999C8.83474 17.8331 10.616 19.6734 12.5153 21.1992C14.4228 22.7139 16.4237 23.9776 18.4447 24.0008C19.4426 24.0082 20.4441 23.6355 21.2321 22.8379L23.345 20.7257C23.7812 20.2903 24.0022 19.7122 24.0015 19.1416C24.0022 18.5702 23.7812 17.9929 23.345 17.5575L19.1192 13.3309ZM4.33185 1.71258C4.47973 1.56545 4.66645 1.49449 4.85989 1.49375C5.05333 1.49449 5.24005 1.56545 5.38793 1.71258L9.61298 5.93764C9.76012 6.08552 9.83107 6.27224 9.83182 6.46568C9.83107 6.65912 9.76012 6.84584 9.61298 6.99372L9.08494 7.52176L3.80381 2.24062L4.33185 1.71258ZM20.1753 21.781C19.6383 22.3076 19.1057 22.4988 18.444 22.5063C17.1108 22.5294 15.2422 21.4913 13.4504 20.0341C11.6497 18.5889 9.90053 16.7875 8.55691 15.4431C7.21253 14.0995 5.41183 12.3503 3.96588 10.5496C2.50948 8.75783 1.47133 6.88915 1.49373 5.55599C1.5012 4.89426 1.6924 4.36248 2.21895 3.82474L2.74698 3.2967L8.13492 8.68464C7.99152 8.98787 7.89966 9.30753 7.89966 9.63391C7.89891 10.2045 8.11999 10.7826 8.55616 11.218L12.7812 15.4431C13.2166 15.8793 13.7947 16.1003 14.3653 16.0996C14.6917 16.1003 15.0114 16.0077 15.3146 15.8643L20.7025 21.2523L20.1753 21.781ZM22.2882 19.6681L21.7601 20.1962L16.479 14.915L17.007 14.387C17.1549 14.2399 17.3416 14.1689 17.5351 14.1682C17.7285 14.1689 17.9152 14.2399 18.0631 14.387L22.2882 18.6121C22.4353 18.7599 22.5062 18.9467 22.507 19.1401C22.5055 19.3343 22.4353 19.521 22.2882 19.6681Z" fill="white"/>
</g>
<defs>
<clipPath id="clip0_1_55">
<rect width="24.0007" height="24" fill="white"/>
</clipPath>
</defs>
</svg>
